<svg width="18" height="14" viewBox="0 0 18 14" fill="none" xmlns="http://www.w3.org/2000/svg">
    //logo
    <g id="logo">
        <path d="M16.99 39.04H23.71V43H11.86V21.94H16.99V39.04ZM33.7769 43.24C32.1369 43.24 30.6569 42.89 29.3369 42.19C28.0369 41.49 27.0069 40.49 26.2469 39.19C25.5069 37.89 25.1369 36.37 25.1369 34.63C25.1369 32.91 25.5169 31.4 26.2769 30.1C27.0369 28.78 28.0769 27.77 29.3969 27.07C30.7169 26.37 32.1969 26.02 33.8369 26.02C35.4769 26.02 36.9569 26.37 38.2769 27.07C39.5969 27.77 40.6369 28.78 41.3969 30.1C42.1569 31.4 42.5369 32.91 42.5369 34.63C42.5369 36.35 42.1469 37.87 41.3669 39.19C40.6069 40.49 39.5569 41.49 38.2169 42.19C36.8969 42.89 35.4169 43.24 33.7769 43.24ZM33.7769 38.8C34.7569 38.8 35.5869 38.44 36.2669 37.72C36.9669 37 37.3169 35.97 37.3169 34.63C37.3169 33.29 36.9769 32.26 36.2969 31.54C35.6369 30.82 34.8169 30.46 33.8369 30.46C32.8369 30.46 32.0069 30.82 31.3469 31.54C30.6869 32.24 30.3569 33.27 30.3569 34.63C30.3569 35.97 30.6769 37 31.3169 37.72C31.9769 38.44 32.7969 38.8 33.7769 38.8ZM51.6184 26.02C52.7984 26.02 53.8284 26.26 54.7084 26.74C55.6084 27.22 56.2984 27.85 56.7784 28.63V26.26H61.9084V42.97C61.9084 44.51 61.5984 45.9 60.9784 47.14C60.3784 48.4 59.4484 49.4 58.1884 50.14C56.9484 50.88 55.3984 51.25 53.5384 51.25C51.0584 51.25 49.0484 50.66 47.5084 49.48C45.9684 48.32 45.0884 46.74 44.8684 44.74H49.9384C50.0984 45.38 50.4784 45.88 51.0784 46.24C51.6784 46.62 52.4184 46.81 53.2984 46.81C54.3584 46.81 55.1984 46.5 55.8184 45.88C56.4584 45.28 56.7784 44.31 56.7784 42.97V40.6C56.2784 41.38 55.5884 42.02 54.7084 42.52C53.8284 43 52.7984 43.24 51.6184 43.24C50.2384 43.24 48.9884 42.89 47.8684 42.19C46.7484 41.47 45.8584 40.46 45.1984 39.16C44.5584 37.84 44.2384 36.32 44.2384 34.6C44.2384 32.88 44.5584 31.37 45.1984 30.07C45.8584 28.77 46.7484 27.77 47.8684 27.07C48.9884 26.37 50.2384 26.02 51.6184 26.02ZM56.7784 34.63C56.7784 33.35 56.4184 32.34 55.6984 31.6C54.9984 30.86 54.1384 30.49 53.1184 30.49C52.0984 30.49 51.2284 30.86 50.5084 31.6C49.8084 32.32 49.4584 33.32 49.4584 34.6C49.4584 35.88 49.8084 36.9 50.5084 37.66C51.2284 38.4 52.0984 38.77 53.1184 38.77C54.1384 38.77 54.9984 38.4 55.6984 37.66C56.4184 36.92 56.7784 35.91 56.7784 34.63ZM73.2398 43.24C71.5998 43.24 70.1198 42.89 68.7998 42.19C67.4998 41.49 66.4698 40.49 65.7098 39.19C64.9698 37.89 64.5998 36.37 64.5998 34.63C64.5998 32.91 64.9798 31.4 65.7398 30.1C66.4998 28.78 67.5398 27.77 68.8598 27.07C70.1798 26.37 71.6598 26.02 73.2998 26.02C74.9398 26.02 76.4198 26.37 77.7398 27.07C79.0598 27.77 80.0998 28.78 80.8598 30.1C81.6198 31.4 81.9998 32.91 81.9998 34.63C81.9998 36.35 81.6098 37.87 80.8298 39.19C80.0698 40.49 79.0198 41.49 77.6798 42.19C76.3598 42.89 74.8798 43.24 73.2398 43.24ZM73.2398 38.8C74.2198 38.8 75.0498 38.44 75.7298 37.72C76.4298 37 76.7798 35.97 76.7798 34.63C76.7798 33.29 76.4398 32.26 75.7598 31.54C75.0998 30.82 74.2798 30.46 73.2998 30.46C72.2998 30.46 71.4698 30.82 70.8098 31.54C70.1498 32.24 69.8198 33.27 69.8198 34.63C69.8198 35.97 70.1398 37 70.7798 37.72C71.4398 38.44 72.2598 38.8 73.2398 38.8Z"
              fill="white"/>
    </g>
    //icon from btn
    <g id="mail">
        <path d="M17.125 0.125H0.875C0.529297 0.125 0.25 0.404297 0.25 0.75V13.25C0.25 13.5957 0.529297 13.875 0.875 13.875H17.125C17.4707 13.875 17.75 13.5957 17.75 13.25V0.75C17.75 0.404297 17.4707 0.125 17.125 0.125ZM15.5469 2.25195L9.38477 7.04688C9.23242 7.16602 9.01953 7.16602 8.86719 7.04688L2.70312 2.25195C2.67989 2.23402 2.66285 2.20927 2.65438 2.18116C2.64592 2.15306 2.64647 2.12301 2.65594 2.09523C2.66542 2.06745 2.68335 2.04333 2.70722 2.02625C2.73109 2.00918 2.75971 2 2.78906 2H15.4609C15.4903 2 15.5189 2.00918 15.5428 2.02625C15.5667 2.04333 15.5846 2.06745 15.5941 2.09523C15.6035 2.12301 15.6041 2.15306 15.5956 2.18116C15.5872 2.20927 15.5701 2.23402 15.5469 2.25195Z"
              fill="white"/>
    </g>
    <g id="download">
        <path d="M10 12.5L13.3333 9.16667M10 12.5V2.5V12.5ZM10 12.5L6.66667 9.16667L10 12.5Z" stroke="white"
              stroke-width="2" stroke-linecap="round" stroke-linejoin="round"/>
        <path d="M1.66667 14.1667L2.18417 16.2376C2.2743 16.5981 2.48236 16.9182 2.77528 17.147C3.0682 17.3757 3.42918 17.5 3.80084 17.5001H16.1992C16.5708 17.5 16.9318 17.3757 17.2247 17.147C17.5177 16.9182 17.7257 16.5981 17.8158 16.2376L18.3333 14.1667"
              stroke="white" stroke-width="2" stroke-linecap="round" stroke-linejoin="round"/>
    </g>
    //icons technology
    <g id="figma">
        <path d="M63.8834 36.1166C67.4928 36.0083 70.9181 34.4983 73.4329 31.9069C75.9477 29.3155 77.3543 25.8464 77.3543 22.2354C77.3543 18.6243 75.9477 15.1553 73.4329 12.5638C70.9181 9.97242 67.4928 8.46245 63.8834 8.35413H36.1167C32.5073 8.46245 29.082 9.97242 26.5671 12.5638C24.0523 15.1553 22.6458 18.6243 22.6458 22.2354C22.6458 25.8464 24.0523 29.3155 26.5671 31.9069C29.082 34.4983 32.5073 36.0083 36.1167 36.1166C32.4757 36.1797 29.0052 37.6704 26.4526 40.2675C23.9 42.8647 22.4697 46.3605 22.4697 50.002C22.4697 53.6436 23.9 57.1394 26.4526 59.7366C29.0052 62.3337 32.4757 63.8244 36.1167 63.8875C32.4935 63.9762 29.0485 65.4779 26.5174 68.0719C23.9862 70.6658 22.5693 74.1465 22.5693 77.7708C22.5693 81.3951 23.9862 84.8758 26.5174 87.4697C29.0485 90.0637 32.4935 91.5654 36.1167 91.6541C39.7988 91.6519 43.3295 90.1879 45.9327 87.5839C48.536 84.9798 49.9989 81.4488 50 77.7666V36.1166H63.8834Z"
              fill="white" fill-opacity="0.5"/>
        <path d="M63.8833 63.8834C71.5509 63.8834 77.7667 57.6676 77.7667 50C77.7667 42.3325 71.5509 36.1167 63.8833 36.1167C56.2158 36.1167 50 42.3325 50 50C50 57.6676 56.2158 63.8834 63.8833 63.8834Z"
              fill="white" fill-opacity="0.5"/>
    </g>
    <g id="html">
        <path d="M14.1798 9.375L20.6251 82.2852L50.0001 90.625L79.2579 82.2852L85.8302 9.375H14.1798ZM72.2853 26.6699L71.8165 31.2793L71.6505 33.1836H37.3341L38.1349 42.3828H70.8595L70.5372 44.7559L68.4669 68.4082L68.3009 69.9902L50.0392 75.0293V75.0586H49.922L49.8927 75.0684V75.0586H49.8829L31.465 69.9805L30.3517 55.8594H39.2482L39.8829 63.0078L49.8829 65.7129H49.922L59.8829 63.0176L60.9962 51.4355H49.8927V51.4258H29.8829L27.6564 26.6699L27.4904 24.2969H72.4415L72.2853 26.6699Z"
              fill="white" fill-opacity="0.5"/>
    </g>
    <g id="css">
        <path d="M17.4667 13.0958H82.5292L76.6125 79.9042L49.9292 87.4542L23.3917 79.9L17.4667 13.0958ZM70.4167 26.7667L29.5833 26.7583L30.2417 34.8792L61.6125 34.8875L60.825 43.3042H40.25L40.9958 51.275H60.15L59.0167 62.1917L50 64.6833L40.8458 62.1708L40.2583 55.6333H32.175L33.075 67.5792L50 72.85L66.6458 68.1125L70.4167 26.7667Z"
              fill="white" fill-opacity="0.5"/>
    </g>
    <g id="sass">
        <path d="M47.1625 69.2062C47.0687 69.3749 47.1156 69.2999 47.1625 69.2062V69.2062ZM86.0875 55.6124C82.9437 55.6124 79.8437 56.3312 77.025 57.7218C76.1031 55.8624 75.15 54.2374 74.9937 53.0187C74.8062 51.5968 74.6031 50.7531 74.8219 49.0656C75.0406 47.3781 76.025 44.9874 76.0093 44.8156C75.9937 44.6437 75.7906 43.7843 73.775 43.7687C71.7593 43.7531 70.025 44.1593 69.8219 44.6906C69.4652 45.6612 69.1882 46.6593 68.9937 47.6749C68.6343 49.5031 64.9656 56.0343 62.8875 59.4406C62.2 58.1124 61.6218 56.9406 61.4968 56.0031C61.3093 54.5812 61.1062 53.7374 61.325 52.0499C61.5437 50.3624 62.5281 47.9718 62.5125 47.7999C62.4968 47.6281 62.2937 46.7687 60.2812 46.7531C58.2687 46.7374 56.5312 47.1437 56.3281 47.6749C56.125 48.2062 55.9062 49.4562 55.5 50.6593C55.0937 51.8624 50.2031 62.7375 48.925 65.5656C48.2687 67.0031 47.7062 68.1593 47.3 68.9406C47.2375 69.0656 47.1906 69.1437 47.1593 69.2062C47.2062 69.1281 47.2375 69.05 47.2375 69.0812C46.8937 69.7531 46.6906 70.1281 46.6906 70.1281V70.1437C46.425 70.6437 46.1281 71.0968 45.9875 71.0968C45.8937 71.0968 45.6906 69.7843 46.0344 67.9874C46.7687 64.2062 48.5031 58.3312 48.4875 58.1281C48.4718 58.0187 48.8156 57.0031 47.3469 56.4562C45.925 55.9406 45.4094 56.7999 45.2844 56.7999C45.1594 56.7999 45.0656 57.1124 45.0656 57.1124C45.0656 57.1124 46.6437 50.4874 42.0344 50.4874C39.1594 50.4874 35.1593 53.6437 33.1937 56.5031C31.9593 57.1749 29.2875 58.6281 26.475 60.1749L23.2406 61.9562C23.1625 61.8781 23.1 61.7999 23.0218 61.7218C17.4281 55.7531 7.1031 51.5343 7.5406 43.5187C7.69685 40.5968 8.71247 32.9249 27.3968 23.6124C42.7094 15.9874 54.95 18.0812 57.0593 22.7374C60.0906 29.3781 50.5125 41.7374 34.6125 43.5187C28.55 44.1906 25.3656 41.8468 24.5687 40.9718C23.7406 40.0499 23.6156 40.0031 23.3031 40.1749C22.7875 40.4562 23.1156 41.2687 23.3031 41.7531C23.7718 42.9874 25.725 45.1749 29.0531 46.2687C31.975 47.2218 39.0812 47.7531 47.6719 44.4249C57.325 40.7062 64.8406 30.3468 62.6343 21.6749C60.3906 12.8624 45.7781 9.97182 31.9625 14.8781C23.7281 17.7999 14.825 22.3937 8.42185 28.3781C0.812471 35.5031 -0.403154 41.7062 0.0968458 44.2999C1.8781 53.5031 14.5625 59.5031 19.6375 63.9406L18.9343 64.3312C16.3875 65.5968 6.71872 70.6593 4.29685 76.0031C1.56247 82.0656 4.74997 86.4093 6.8406 87.0031C13.3718 88.8156 20.0562 85.5499 23.65 80.1906C27.2437 74.8312 26.8062 67.8312 25.15 64.6437C25.1343 64.5968 25.1031 64.5656 25.0875 64.5187C26.9624 63.4082 28.8532 62.3247 30.7593 61.2687C30.1343 62.9562 29.6812 64.9874 29.4468 67.9249C29.1656 71.3624 30.5875 75.8156 32.4312 77.5656C33.2437 78.3312 34.225 78.3468 34.8375 78.3468C36.9937 78.3468 37.9625 76.5656 39.0406 74.4406C40.3687 71.8468 41.5406 68.8312 41.5406 68.8312C41.5406 68.8312 40.0718 76.9874 44.0875 76.9874C45.5562 76.9874 47.025 75.0968 47.6812 74.1281V74.1437C47.6812 74.1437 47.7125 74.0812 47.7906 73.9562C47.9468 73.7218 48.025 73.5812 48.025 73.5812V73.5343C48.6187 72.5187 49.9156 70.1906 51.8687 66.3468C54.4 61.3781 56.8187 55.1749 56.8187 55.1749C57.0531 56.5374 57.3781 57.8843 57.7875 59.2062C58.225 60.6906 59.1469 62.3156 59.8812 63.8937C59.2875 64.7062 58.9281 65.1749 58.9281 65.1749C58.9281 65.1875 58.9343 65.1968 58.9437 65.2062C58.475 65.8312 57.9437 66.5031 57.3969 67.1593C55.4 69.5343 53.0219 72.2531 52.7094 73.0343C52.3344 73.9562 52.4281 74.6437 53.1468 75.1749C53.6781 75.5812 54.6156 75.6437 55.6 75.5656C57.3968 75.4406 58.6625 75.0031 59.2718 74.7218C60.3958 74.3191 61.4581 73.7617 62.4281 73.0656C64.3812 71.6281 65.5687 69.5656 65.4594 66.8468C65.3969 65.3468 64.9125 63.8468 64.3187 62.4406C64.4906 62.1906 64.6781 61.9249 64.85 61.6593C66.8833 58.6254 68.7154 55.4613 70.3344 52.1874C70.5687 53.5499 70.8906 54.8968 71.3031 56.2187C71.6781 57.4843 72.4125 58.8749 73.0843 60.2343C70.1781 62.5937 68.3812 65.3281 67.7594 67.1249C66.6031 70.4531 67.5094 71.9531 69.2125 72.2968C69.9781 72.4531 71.0718 72.0937 71.8843 71.7499C73.0906 71.3468 74.2281 70.7625 75.2562 70.0156C77.2094 68.5781 79.1 66.5624 78.9718 63.8281C78.925 62.5937 78.5812 61.3593 78.1281 60.1718C80.5812 59.1406 83.7687 58.5781 87.8312 59.0468C96.5312 60.0624 98.2344 65.4999 97.9062 67.7656C97.5781 70.0312 95.75 71.2968 95.1406 71.6718C94.5312 72.0468 94.3437 72.1875 94.3906 72.4687C94.4687 72.875 94.75 72.8593 95.2656 72.7656C95.9844 72.6406 99.8281 70.9218 100 66.7187C100.25 61.4062 95.1406 55.5624 86.0937 55.6093L86.0875 55.6124ZM19.0281 78.2218C16.1531 81.3624 12.125 82.5499 10.3906 81.5499C8.53122 80.4687 9.2656 75.8468 12.8093 72.5C14.9656 70.4687 17.7468 68.5937 19.5906 67.4374C20.0125 67.1875 20.6218 66.8125 21.3718 66.3593C21.4328 66.3203 21.4953 66.2838 21.5593 66.25C21.7 66.1562 21.8562 66.0781 22.0125 65.9843C23.3062 70.7343 22.0593 74.9218 19.0281 78.2187V78.2218ZM40.0219 63.9406C39.0219 66.3937 36.9156 72.6437 35.6312 72.3156C34.5375 72.0343 33.8656 67.2687 35.4125 62.5812C36.1937 60.2218 37.85 57.4093 38.8344 56.3156C40.4125 54.5499 42.1468 53.9874 42.5531 54.6906C43.1 55.6124 40.6469 62.4093 40.0219 63.9406ZM57.3656 72.2218C56.9437 72.4406 56.5531 72.5812 56.3656 72.4718C56.225 72.3937 56.5375 72.0968 56.5375 72.0968C56.5375 72.0968 58.7093 69.7687 59.5687 68.7062C60.0687 68.0812 60.6469 67.3468 61.2719 66.5343C61.2719 66.6124 61.2875 66.6906 61.2875 66.7843C61.2687 69.5812 58.5812 71.4718 57.3625 72.2218H57.3656ZM70.7406 69.1749C70.4281 68.9562 70.475 68.2218 71.5218 65.9406C71.9281 65.0499 72.8656 63.5499 74.4906 62.1124C74.675 62.6562 74.775 63.2249 74.7875 63.7999C74.7718 67.3156 72.2562 68.6281 70.7406 69.1749Z"
              fill="white" fill-opacity="0.5"/>
    </g>
    <g id="react">
        <path d="M100 48.7041C100 42.0791 91.7042 35.8 78.9833 31.9083C81.9208 18.9458 80.6167 8.62913 74.8667 5.32496C73.4734 4.54463 71.8965 4.15184 70.3 4.18746V8.72913C71.2375 8.72913 71.9917 8.91663 72.625 9.26246C75.3958 10.8541 76.6 16.9041 75.6625 24.6916C75.4375 26.6083 75.0708 28.625 74.6208 30.6833C70.361 29.6568 66.0375 28.9149 61.6792 28.4625C59.0827 24.8803 56.25 21.4755 53.2 18.2708C59.8458 12.0958 66.0833 8.71246 70.325 8.71246V4.16663C64.7167 4.16663 57.3792 8.16246 49.9583 15.0916C42.5417 8.20829 35.2 4.24996 29.5958 4.24996V8.79163C33.8167 8.79163 40.075 12.1583 46.7208 18.2916C43.8667 21.2916 41.0125 24.6916 38.3 28.4625C33.9326 28.9098 29.6015 29.6589 25.3375 30.7041C24.8667 28.6666 24.5208 26.6916 24.275 24.7958C23.3167 17.0041 24.5 10.9541 27.2542 9.34579C27.8625 8.97913 28.6583 8.81246 29.5958 8.81246V4.27079C27.8875 4.27079 26.3333 4.63746 24.9917 5.40829C19.2625 8.71246 17.9792 19.0041 20.9333 31.9291C8.25417 35.8458 0 42.1 0 48.7041C0 55.3291 8.29583 61.6083 21.0167 65.4958C18.0792 78.4625 19.3833 88.7791 25.1333 92.0791C26.4583 92.8541 28.0083 93.2208 29.7167 93.2208C35.325 93.2208 42.6625 89.225 50.0833 82.2958C57.5 89.1833 64.8375 93.1375 70.4458 93.1375C72.0546 93.1714 73.6435 92.7775 75.05 91.9958C80.7792 88.6958 82.0625 78.4041 79.1083 65.4791C91.7458 61.5875 100 55.3083 100 48.7041ZM73.4583 35.1083C72.6666 37.8327 71.7489 40.5189 70.7083 43.1583C69.0048 39.8448 67.1344 36.6198 65.1042 33.4958C68 33.925 70.7917 34.4541 73.4625 35.1083H73.4583ZM64.125 56.8166C62.5375 59.5666 60.9042 62.1791 59.2125 64.6041C53.0969 65.1432 46.946 65.1501 40.8292 64.625C37.3206 59.6132 34.2522 54.3073 31.6583 48.7666C34.2483 43.2129 37.3036 37.8883 40.7917 32.85C46.9058 32.3098 53.0553 32.3015 59.1708 32.825C60.8625 35.25 62.5167 37.8416 64.1042 40.575C65.6542 43.2416 67.0625 45.95 68.3458 48.6833C67.0483 51.4498 65.6402 54.1631 64.125 56.8166ZM70.7083 54.1666C71.8083 56.8958 72.75 59.6291 73.5208 62.2791C70.8542 62.9333 68.0375 63.4833 65.125 63.9083C67.1468 60.7559 69.0103 57.5046 70.7083 54.1666ZM50.0417 75.9166C48.1458 73.9583 46.25 71.7791 44.375 69.3916C46.2083 69.475 48.0833 69.5375 49.9792 69.5375C51.8958 69.5375 53.7917 69.4958 55.6458 69.3916C53.8125 71.7791 51.9167 73.9583 50.0417 75.9166ZM34.875 63.9083C32.0656 63.5012 29.2765 62.9645 26.5167 62.3C27.2708 59.6708 28.2083 56.9583 29.2667 54.25C30.1042 55.875 30.9833 57.5083 31.9417 59.1416C32.9 60.7708 33.875 62.3625 34.875 63.9083ZM49.9375 21.4916C51.8333 23.45 53.7292 25.6291 55.6042 28.0166C53.7708 27.9333 51.8958 27.8708 50 27.8708C48.0833 27.8708 46.1875 27.9125 44.3333 28.0166C46.1667 25.6291 48.0625 23.45 49.9375 21.4916ZM34.8542 33.5C32.8328 36.6455 30.9694 39.8898 29.2708 43.2208C28.2009 40.5644 27.2623 37.8569 26.4583 35.1083C29.125 34.475 31.9417 33.925 34.8542 33.5ZM16.4083 59.0166C9.19167 55.9416 4.525 51.9041 4.525 48.7041C4.525 45.5041 9.19167 41.4458 16.4083 38.3916C18.1583 37.6375 20.075 36.9625 22.0542 36.3333C23.2167 40.325 24.7458 44.4833 26.6375 48.7458C24.8515 52.7549 23.3411 56.8811 22.1167 61.0958C20.181 60.4965 18.276 59.8026 16.4083 59.0166ZM27.375 88.1416C24.6042 86.5583 23.4 80.5 24.3375 72.7166C24.5625 70.8 24.9292 68.7791 25.3792 66.7208C29.3708 67.7 33.7333 68.4541 38.3208 68.9458C40.9174 72.5278 43.7501 75.9326 46.8 79.1375C40.1542 85.3125 33.9167 88.6958 29.675 88.6958C28.8748 88.7045 28.0847 88.5156 27.375 88.1458V88.1416ZM75.725 72.6125C76.6833 80.4 75.5 86.4541 72.7458 88.0625C72.1375 88.4291 71.3417 88.5916 70.4042 88.5916C66.1833 88.5916 59.925 85.2291 53.2792 79.0916C56.1333 76.1 58.9875 72.6958 61.7 68.925C66.0674 68.4776 70.3985 67.7286 74.6625 66.6833C75.1333 68.7416 75.4958 70.7166 75.725 72.6125ZM83.5708 59.0166C81.8208 59.7708 79.9042 60.4458 77.925 61.075C76.6791 56.8388 75.1478 52.6918 73.3417 48.6625C75.2167 44.425 76.7208 40.2875 77.8625 36.3125C79.8833 36.9416 81.7958 37.6375 83.5917 38.3916C90.8083 41.4666 95.475 45.5041 95.475 48.7041C95.4542 51.9041 90.7875 55.9625 83.5708 59.0166Z"
              fill="white" fill-opacity="0.5"/>
        <path d="M49.9791 58.0208C52.4501 58.0208 54.8198 57.0392 56.567 55.292C58.3142 53.5448 59.2958 51.175 59.2958 48.7041C59.2958 46.2332 58.3142 43.8635 56.567 42.1162C54.8198 40.369 52.4501 39.3875 49.9791 39.3875C47.5082 39.3875 45.1385 40.369 43.3913 42.1162C41.644 43.8635 40.6625 46.2332 40.6625 48.7041C40.6625 51.175 41.644 53.5448 43.3913 55.292C45.1385 57.0392 47.5082 58.0208 49.9791 58.0208Z"
              fill="white" fill-opacity="0.5"/>
    </g>
    //icons specialized
    <g id="computer">
        <path fill-rule="evenodd" clip-rule="evenodd"
              d="M0.5 3.12505C0.5 2.34266 0.81607 1.59232 1.37868 1.03908C1.94129 0.485851 2.70435 0.175049 3.5 0.175049H18.5C19.2956 0.175049 20.0587 0.485851 20.6213 1.03908C21.1839 1.59232 21.5 2.34266 21.5 3.12505V14.925C21.5 15.7074 21.1839 16.4578 20.6213 17.011C20.0587 17.5642 19.2956 17.875 18.5 17.875H15.17L15.3545 18.5963L16.5605 19.7822C16.7702 19.9885 16.913 20.2513 16.9709 20.5374C17.0287 20.8235 16.999 21.12 16.8855 21.3895C16.772 21.6589 16.5798 21.8893 16.3332 22.0514C16.0866 22.2134 15.7966 22.3 15.5 22.3H6.5C6.20337 22.3 5.91343 22.2134 5.66681 22.0514C5.4202 21.8893 5.22799 21.6589 5.11448 21.3895C5.00098 21.12 4.97127 20.8235 5.02912 20.5374C5.08698 20.2513 5.22979 19.9885 5.4395 19.7822L6.6455 18.5963L6.83 17.875H3.5C2.70435 17.875 1.94129 17.5642 1.37868 17.011C0.81607 16.4578 0.5 15.7074 0.5 14.925V3.12505ZM9.1565 13.45H3.5V3.12505H18.5V13.45H9.1565Z"
              fill="white"/>
    </g>
    <g id="paint">
        <path fill-rule="evenodd" clip-rule="evenodd"
              d="M24.33 20.5852C25.896 14.8386 22.188 8.90315 16.0965 7.29835C9.21747 5.4841 -0.546033 10.1953 1.62597 16.2383C2.34597 18.237 3.73197 18.7045 6.34647 18.7414L6.50997 18.7444C7.89147 18.7606 8.27997 18.8491 8.39697 19.0349C8.58747 19.3417 8.59047 19.83 8.37597 21.1737C8.27397 21.8079 8.24097 22.0292 8.20197 22.3758C7.96347 24.4865 8.32647 26.1326 9.73197 27.6224C14.124 32.2731 22.5615 27.0722 24.33 20.5852ZM4.45497 15.253C3.36147 12.2145 10.359 8.83825 15.3195 10.1451C19.845 11.3384 22.5585 15.6823 21.432 19.8196C20.175 24.4334 14.259 28.0796 11.931 25.6134C11.211 24.8523 11.0325 24.0381 11.184 22.7003C11.2155 22.4142 11.2455 22.2165 11.34 21.6295C11.6685 19.5689 11.664 18.6278 10.953 17.4906C10.062 16.0643 9.00297 15.8239 6.54747 15.7929L6.38847 15.7899C4.94247 15.7708 4.59897 15.6542 4.45347 15.253H4.45497Z"
              fill="#222A36"/>
        <path d="M9 14.75C8.50272 14.75 8.02581 14.5557 7.67417 14.21C7.32254 13.8642 7.125 13.3952 7.125 12.9062C7.125 12.4173 7.32254 11.9483 7.67417 11.6025C8.02581 11.2568 8.50272 11.0625 9 11.0625C9.49728 11.0625 9.97419 11.2568 10.3258 11.6025C10.6775 11.9483 10.875 12.4173 10.875 12.9062C10.875 13.3952 10.6775 13.8642 10.3258 14.21C9.97419 14.5557 9.49728 14.75 9 14.75Z"
              fill="#222A36"/>
        <path d="M14.625 14.75C14.1277 14.75 13.6508 14.5557 13.2992 14.21C12.9475 13.8642 12.75 13.3952 12.75 12.9062C12.75 12.4173 12.9475 11.9483 13.2992 11.6025C13.6508 11.2568 14.1277 11.0625 14.625 11.0625C15.1223 11.0625 15.5992 11.2568 15.9508 11.6025C16.3025 11.9483 16.5 12.4173 16.5 12.9062C16.5 13.3952 16.3025 13.8642 15.9508 14.21C15.5992 14.5557 15.1223 14.75 14.625 14.75Z"
              fill="#222A36"/>
        <path d="M18.375 19.175C17.8777 19.175 17.4008 18.9808 17.0492 18.635C16.6975 18.2893 16.5 17.8203 16.5 17.3313C16.5 16.8423 16.6975 16.3733 17.0492 16.0276C17.4008 15.6818 17.8777 15.4875 18.375 15.4875C18.8723 15.4875 19.3492 15.6818 19.7008 16.0276C20.0525 16.3733 20.25 16.8423 20.25 17.3313C20.25 17.8203 20.0525 18.2893 19.7008 18.635C19.3492 18.9808 18.8723 19.175 18.375 19.175Z"
              fill="#222A36"/>
        <path d="M16.125 24.3375C15.6277 24.3375 15.1508 24.1433 14.7992 23.7975C14.4475 23.4517 14.25 22.9828 14.25 22.4938C14.25 22.0048 14.4475 21.5358 14.7992 21.19C15.1508 20.8443 15.6277 20.65 16.125 20.65C16.6223 20.65 17.0992 20.8443 17.4508 21.19C17.8025 21.5358 18 22.0048 18 22.4938C18 22.9828 17.8025 23.4517 17.4508 23.7975C17.0992 24.1433 16.6223 24.3375 16.125 24.3375Z"
              fill="#222A36"/>
        <path d="M21.555 5.31754C21.7329 5.22384 21.9281 5.16639 22.1291 5.14862C22.33 5.13086 22.5326 5.15315 22.7246 5.21415C22.9166 5.27516 23.0941 5.37363 23.2465 5.50367C23.3989 5.63371 23.523 5.79264 23.6115 5.97097L29.751 18.361C29.8535 18.5837 29.8659 18.8364 29.7857 19.0678C29.7055 19.2992 29.5387 19.4918 29.3192 19.6066C29.0997 19.7214 28.844 19.7497 28.6041 19.6857C28.3641 19.6217 28.158 19.4703 28.0275 19.2622L20.9655 7.35894C20.864 7.18771 20.7987 6.99808 20.7735 6.80142C20.7483 6.60477 20.7638 6.40514 20.819 6.2145C20.8742 6.02387 20.9679 5.84616 21.0947 5.69203C21.2214 5.5379 21.3785 5.41052 21.5565 5.31754H21.555Z"
              fill="#222A36"/>
        <path fill-rule="evenodd" clip-rule="evenodd"
              d="M18.8054 5.13899C19.5359 6.48861 20.7644 6.86621 21.9524 6.24524C23.1389 5.62574 23.5094 4.41181 22.7789 3.06219C21.9449 1.51639 20.1569 0.115138 18.9719 0.733163C17.7869 1.35266 17.9699 3.59319 18.8069 5.13899H18.8054ZM20.1299 4.44574C19.8643 3.92128 19.7015 3.35235 19.6499 2.76866C19.6276 2.52465 19.6367 2.27884 19.6769 2.03706L19.7039 2.05034C19.7789 2.08574 20.0114 2.19194 20.3084 2.42499C20.7614 2.78046 21.2114 3.30409 21.4544 3.75396C21.7979 4.38821 21.7004 4.70681 21.2474 4.94429C20.7974 5.18029 20.4734 5.07999 20.1299 4.44721V4.44574Z"
              fill="#222A36"/>
    </g>
    <g id="thunder">
        <path d="M22.105 4.42873C22.7563 3.61871 22.1425 2.45837 21.06 2.45837H12.665C12.1963 2.45837 11.7625 2.69437 11.5288 3.07542L5.17629 13.4692C4.67504 14.2879 5.30504 15.3093 6.31129 15.3093H10.5975L6.56004 25.2225C5.97629 26.4763 7.55379 27.6231 8.61379 26.716L25 11.4694H16.4388L22.105 4.42873V4.42873Z"
              stroke="#222A36" stroke-width="2" stroke-linecap="round" stroke-linejoin="round"/>
    </g>
    //four
    <g id="four">
        <path d="M49.7 57.9C48.9 57.7 45.5667 57.5333 39.7 57.4V75.1H28.1V57.4H0.8V55.3L38.1 7.9H39.7V47.1H40.5C42.3 47.1 43.6333 46.9667 44.5 46.7C45.4333 46.4333 46.0667 46 46.4 45.4C46.7333 44.8 47 43.8667 47.2 42.6H49.3C49.3 49.6667 49.4333 54.7667 49.7 57.9ZM28.1 47.1V23.8L10 47.1H28.1ZM105.598 24H128.798V27H105.598V50.5H101.998V27H78.6977V24H101.998V0.399999H105.598V24Z"
              fill="#676CDB"/>
    </g>
    //arrows
    <g id="arrow-left">
        <path d="M33.3333 20H6.66667" stroke="#676CDB" stroke-opacity="0.5" stroke-width="2" stroke-linecap="round"
              stroke-linejoin="round"/>
        <path d="M18.3333 31.6667L6.66667 20L18.3333 8.33335" stroke="#676CDB" stroke-opacity="0.5" stroke-width="2"
              stroke-linecap="round" stroke-linejoin="round"/>
    </g>
    <g id="arrow-right">
        <path d="M6.66663 20H33.3333" stroke="#676CDB" stroke-width="2" stroke-linecap="round" stroke-linejoin="round"/>
        <path d="M21.6666 8.33334L33.3333 20L21.6666 31.6667" stroke="#676CDB" stroke-width="2" stroke-linecap="round"
              stroke-linejoin="round"/>
    </g>
    //social
    <g id="dribble">
    <path d="M22.9167 12.5C22.9184 13.872 22.6483 15.2308 22.1218 16.4978C21.5954 17.7649 20.823 18.915 19.8495 19.8818C18.8839 20.8457 17.7378 21.6098 16.4767 22.1306C15.2157 22.6513 13.8644 22.9184 12.5 22.9167C6.74688 22.9167 2.08334 18.2531 2.08334 12.5C2.0797 9.82905 3.10567 7.25946 4.94792 5.32552C5.91997 4.29979 7.09111 3.4832 8.38965 2.92572C9.6882 2.36824 11.0868 2.0816 12.5 2.08334C13.8644 2.08157 15.2157 2.34869 16.4767 2.86944C17.7378 3.39018 18.8839 4.15434 19.8495 5.11823C20.823 6.08502 21.5954 7.23515 22.1218 8.50216C22.6483 9.76918 22.9184 11.128 22.9167 12.5V12.5Z"
          stroke="white" stroke-width="2" stroke-linecap="round" stroke-linejoin="round"/>
    <path d="M22.9167 12.5C21.3969 12.5 17.2042 11.9271 13.4516 13.5745C9.37501 15.3646 6.42344 18.1411 5.13699 19.8682"
          stroke="white" stroke-width="2" stroke-linecap="round" stroke-linejoin="round"/>
    <path d="M8.59375 2.84064C10.224 4.34532 13.7812 8.17657 15.1042 11.9792C16.4271 15.7823 16.9167 20.4583 17.2188 21.7891"
          stroke="white" stroke-width="2" stroke-linecap="round" stroke-linejoin="round"/>
    <path d="M2.16354 11.1979C4.13125 11.3167 9.34011 11.4234 12.6734 10C16.0068 8.57657 18.875 5.95834 19.8589 5.12761"
          stroke="white" stroke-width="2" stroke-linecap="round" stroke-linejoin="round"/>
    <path d="M2.86459 16.4651C3.78246 18.6869 5.43787 20.5246 7.55209 21.6688" stroke="white" stroke-width="2"
          stroke-linecap="round" stroke-linejoin="round"/>
    <path d="M2.08334 12.5C2.0797 9.82906 3.10567 7.25947 4.94792 5.32553" stroke="white" stroke-width="2"
          stroke-linecap="round" stroke-linejoin="round"/>
    <path d="M12.5 2.08334C11.0868 2.0816 9.6882 2.36824 8.38965 2.92572C7.0911 3.4832 5.91997 4.29979 4.94791 5.32552"
          stroke="white" stroke-width="2" stroke-linecap="round" stroke-linejoin="round"/>
    <path d="M16.6667 2.95C17.8529 3.46903 18.9322 4.20429 19.8495 5.11823C20.823 6.08501 21.5954 7.23514 22.1218 8.50216C22.6483 9.76918 22.9184 11.128 22.9167 12.5C22.9167 13.7828 22.6849 15.0109 22.2604 16.1458"
          stroke="white" stroke-width="2" stroke-linecap="round" stroke-linejoin="round"/>
    <path d="M12.5 22.9167C13.8644 22.9184 15.2157 22.6513 16.4767 22.1306C17.7378 21.6098 18.8839 20.8457 19.8495 19.8818"
          stroke="white" stroke-width="2" stroke-linecap="round" stroke-linejoin="round"/>
        </g>
<g id="upwork">
<path d="M19.3359 13.7047C18.1883 13.7047 17.1102 13.2203 16.1336 12.4273L16.3695 11.3086L16.3773 11.2641C16.593 10.0758 17.2602 8.07812 19.3352 8.07812C20.0818 8.07833 20.7979 8.37504 21.3259 8.90303C21.8539 9.43101 22.1506 10.1471 22.1508 10.8937C22.1495 11.6398 21.8524 12.3548 21.3245 12.8819C20.7966 13.4091 20.0812 13.7053 19.3352 13.7055L19.3359 13.7047ZM19.3359 5.2289C16.6914 5.2289 14.6359 6.94609 13.8023 9.77421C12.5328 7.86562 11.5641 5.57109 11.0031 3.63828H8.15469V11.0477C8.15324 11.7509 7.87325 12.4249 7.37601 12.9221C6.87876 13.4193 6.20477 13.6993 5.50156 13.7008C4.79854 13.6987 4.12491 13.4185 3.6278 12.9214C3.13069 12.4243 2.8505 11.7507 2.84844 11.0477V3.63828H0V11.0477C0 14.0828 2.46953 16.5695 5.50156 16.5695C8.53672 16.5695 11.0031 14.0836 11.0031 11.0477V9.80624C11.5562 10.9578 12.2359 12.1297 13.0617 13.1633L11.3164 21.3625H14.2297L15.4953 15.4133C16.6023 16.1211 17.8758 16.5687 19.3367 16.5687C22.4617 16.5687 25.0008 14.0133 25.0008 10.8922C25.0008 7.76718 22.4617 5.22812 19.3367 5.22812L19.3359 5.2289Z"
      fill="white"/>
</g>
<g id="youtube">
<path d="M24.4793 6.77812C24.3377 6.27316 24.062 5.81598 23.6814 5.45521C23.29 5.08333 22.8103 4.81733 22.2876 4.68229C20.3314 4.16666 12.4939 4.16666 12.4939 4.16666C9.22651 4.12949 5.95995 4.29299 2.71262 4.65625C2.18991 4.80126 1.71113 5.07321 1.31887 5.44791C0.933457 5.81875 0.654291 6.27604 0.508457 6.77708C0.158138 8.66431 -0.0120717 10.5806 0.0001241 12.5C-0.0123759 14.4177 0.157416 16.3333 0.508457 18.2229C0.651166 18.7219 0.929291 19.1771 1.31575 19.5448C1.70221 19.9125 2.18346 20.1781 2.71262 20.3187C4.69492 20.8333 12.4939 20.8333 12.4939 20.8333C15.7654 20.8706 19.0361 20.7071 22.2876 20.3437C22.8103 20.2087 23.29 19.9427 23.6814 19.5708C24.0668 19.2031 24.3408 18.7458 24.4783 18.2479C24.8377 16.3614 25.0125 14.4444 25.0001 12.524C25.0272 10.5954 24.8526 8.66934 24.4793 6.77708V6.77812ZM10.0022 16.0667V8.93437L16.523 12.501L10.0022 16.0667Z"
      fill="white"/>
</g>
<g id="linkedin">
<path fill-rule="evenodd" clip-rule="evenodd"
      d="M1.04167 2.95624C1.04167 2.44846 1.24339 1.96148 1.60244 1.60243C1.96149 1.24337 2.44848 1.04166 2.95626 1.04166H22.0417C22.2933 1.04125 22.5426 1.09047 22.7752 1.18652C23.0077 1.28257 23.2191 1.42354 23.3971 1.60138C23.5752 1.77922 23.7164 1.99043 23.8127 2.22292C23.909 2.45541 23.9585 2.7046 23.9583 2.95624V22.0417C23.9586 22.2934 23.9093 22.5426 23.8131 22.7752C23.7169 23.0078 23.5759 23.2192 23.3979 23.3972C23.22 23.5752 23.0087 23.7164 22.7762 23.8127C22.5437 23.909 22.2944 23.9585 22.0427 23.9583H2.95626C2.70474 23.9583 2.45569 23.9088 2.22334 23.8125C1.99098 23.7162 1.77987 23.5751 1.60207 23.3972C1.42427 23.2193 1.28327 23.0081 1.18711 22.7757C1.09096 22.5433 1.04154 22.2942 1.04167 22.0427V2.95624ZM10.1125 9.77916H13.2156V11.3375C13.6635 10.4417 14.8094 9.63541 16.5313 9.63541C19.8323 9.63541 20.6146 11.4198 20.6146 14.6937V20.7583H17.274V15.4396C17.274 13.575 16.826 12.5229 15.6885 12.5229C14.1104 12.5229 13.4542 13.6573 13.4542 15.4396V20.7583H10.1125V9.77916ZM4.38334 20.6156H7.72501V9.63541H4.38334V20.6146V20.6156ZM8.20313 6.05416C8.20943 6.34028 8.15852 6.62477 8.05338 6.89095C7.94824 7.15712 7.791 7.39961 7.59087 7.60419C7.39075 7.80877 7.15178 7.97132 6.88798 8.08229C6.62418 8.19326 6.34088 8.25043 6.05469 8.25043C5.76851 8.25043 5.4852 8.19326 5.22141 8.08229C4.95761 7.97132 4.71864 7.80877 4.51851 7.60419C4.31839 7.39961 4.16114 7.15712 4.05601 6.89095C3.95087 6.62477 3.89996 6.34028 3.90626 6.05416C3.91862 5.49255 4.15041 4.95811 4.55197 4.56529C4.95353 4.17247 5.49295 3.95251 6.05469 3.95251C6.61644 3.95251 7.15585 4.17247 7.55742 4.56529C7.95898 4.95811 8.19076 5.49255 8.20313 6.05416Z"
      fill="white"/>
</g>
<g id="github">
<path fill-rule="evenodd" clip-rule="evenodd"
      d="M12.5 0C5.59375 0 0 5.59375 0 12.5C0 18.0312 3.57812 22.7031 8.54688 24.3594C9.17188 24.4688 9.40625 24.0938 9.40625 23.7656C9.40625 23.4688 9.39062 22.4844 9.39062 21.4375C6.25 22.0156 5.4375 20.6719 5.1875 19.9688C5.04688 19.6094 4.4375 18.5 3.90625 18.2031C3.46875 17.9688 2.84375 17.3906 3.89062 17.375C4.875 17.3594 5.57812 18.2812 5.8125 18.6562C6.9375 20.5469 8.73437 20.0156 9.45312 19.6875C9.5625 18.875 9.89062 18.3281 10.25 18.0156C7.46875 17.7031 4.5625 16.625 4.5625 11.8437C4.5625 10.4844 5.04688 9.35938 5.84375 8.48438C5.71875 8.17188 5.28125 6.89062 5.96875 5.17188C5.96875 5.17188 7.01562 4.84375 9.40625 6.45312C10.4062 6.17188 11.4687 6.03125 12.5312 6.03125C13.5937 6.03125 14.6562 6.17188 15.6562 6.45312C18.0469 4.82812 19.0938 5.17188 19.0938 5.17188C19.7812 6.89062 19.3438 8.17188 19.2188 8.48438C20.0156 9.35938 20.5 10.4687 20.5 11.8437C20.5 16.6406 17.5781 17.7031 14.7969 18.0156C15.25 18.4062 15.6406 19.1562 15.6406 20.3281C15.6406 22 15.625 23.3438 15.625 23.7656C15.625 24.0938 15.8594 24.4844 16.4844 24.3594C18.9658 23.5216 21.1221 21.9268 22.6496 19.7993C24.1772 17.6719 24.9993 15.119 25 12.5C25 5.59375 19.4062 0 12.5 0Z"
      fill="white"/>
</g>

        </svg>
